<svg xmlns="http://www.w3.org/2000/svg" width="174.9" height="174.9" viewBox="0 0 53 53">
  <metadata><?xpacket begin="﻿" id="W5M0MpCehiHzreSzNTczkc9d"?>
<x:xmpmeta xmlns:x="adobe:ns:meta/" x:xmptk="Adobe XMP Core 5.6-c142 79.160924, 2017/07/13-01:06:39        ">
   <rdf:RDF xmlns:rdf="http://www.w3.org/1999/02/22-rdf-syntax-ns#">
      <rdf:Description rdf:about=""/>
   </rdf:RDF>
</x:xmpmeta>
                                                                                                    
                                                                                                    
                                                                                                    
                                                                                                    
                                                                                                    
                                                                                                    
                                                                                                    
                                                                                                    
                                                                                                    
                                                                                                    
                                                                                                    
                                                                                                    
                                                                                                    
                                                                                                    
                                                                                                    
                                                                                                    
                                                                                                    
                                                                                                    
                                                                                                    
                                                                                                    
                           
<?xpacket end="w"?></metadata>
<defs>
    <style>
      .cls-1 {
        fill: none;
        stroke: #5d9029;
        stroke-width: 2px;
      }

      .cls-2 {
        fill: #5d9029;
        fill-rule: evenodd;
      }
    </style>
  </defs>
  <circle class="cls-1" cx="26.5" cy="26.5" r="25.5"/>
  <path id="Forma_1" data-name="Forma 1" class="cls-2" d="M44,24.083a0.93,0.93,0,0,0-.826-0.235,21.6,21.6,0,0,0-11.213,6.461,23.145,23.145,0,0,0-2.409,3.05c0.324-1.986.575-3.924,0.767-5.758a0.927,0.927,0,0,0,.181-0.067,14.41,14.41,0,0,0,6.111-6.082,14.489,14.489,0,0,0,1.711-8.466,0.932,0.932,0,0,0-1.342-.727,14.4,14.4,0,0,0-6.059,5.99c0.055-2.3.019-3.767,0.013-3.983a0.934,0.934,0,0,0-.932-0.91H29.979a0.934,0.934,0,0,0-.906.962c0,0.053.037,1.5-.026,3.861a14.386,14.386,0,0,0-6.021-5.922,0.932,0.932,0,0,0-1.342.727A14.488,14.488,0,0,0,23.4,21.451h0a14.8,14.8,0,0,0,4.553,5.154c0.177,0.123.357,0.242,0.539,0.355-0.193,1.906-.448,3.933-0.783,6.008q-0.191-1.023-.479-2.037a23.118,23.118,0,0,0-1.863-4.581,21.658,21.658,0,0,0-9.178-9.141,0.932,0.932,0,0,0-1.342.727,21.765,21.765,0,0,0,2.574,12.718,21.862,21.862,0,0,0,8.4,8.725c0.175,0.1.352,0.191,0.529,0.283-0.391,1.557-.836,3.1-1.344,4.6-0.474,1.4-1,2.758-1.591,4.058a0.938,0.938,0,0,0,.463,1.24,0.929,0.929,0,0,0,1.235-.464,49.577,49.577,0,0,0,2.272-6.126,21.606,21.606,0,0,0,11.16-6.449A21.729,21.729,0,0,0,44.286,24.9,0.939,0.939,0,0,0,44,24.083ZM32.513,19.23a12.9,12.9,0,0,1,4.034-4.55,12.961,12.961,0,0,1-1.574,5.882,12.905,12.905,0,0,1-4.034,4.55A12.957,12.957,0,0,1,32.513,19.23Zm-6.32,18.208a20.131,20.131,0,0,1-7.135-7.672h0a20.225,20.225,0,0,1-2.472-10.2A20.728,20.728,0,0,1,26.193,37.438ZM25.037,20.562h0a12.958,12.958,0,0,1-1.575-5.882A13.237,13.237,0,0,1,29.07,25.112,12.906,12.906,0,0,1,25.037,20.562ZM37.18,35.238a20.074,20.074,0,0,1-8.862,5.569A20.674,20.674,0,0,1,42.183,26.022,20.184,20.184,0,0,1,37.18,35.238Z" transform="translate(-3 -3)"/>
</svg>
