<svg xmlns="http://www.w3.org/2000/svg" width="174.694" height="174.9" viewBox="0 0 52.938 53">
  <metadata><?xpacket begin="﻿" id="W5M0MpCehiHzreSzNTczkc9d"?>
<x:xmpmeta xmlns:x="adobe:ns:meta/" x:xmptk="Adobe XMP Core 5.6-c142 79.160924, 2017/07/13-01:06:39        ">
   <rdf:RDF xmlns:rdf="http://www.w3.org/1999/02/22-rdf-syntax-ns#">
      <rdf:Description rdf:about=""/>
   </rdf:RDF>
</x:xmpmeta>
                                                                                                    
                                                                                                    
                                                                                                    
                                                                                                    
                                                                                                    
                                                                                                    
                                                                                                    
                                                                                                    
                                                                                                    
                                                                                                    
                                                                                                    
                                                                                                    
                                                                                                    
                                                                                                    
                                                                                                    
                                                                                                    
                                                                                                    
                                                                                                    
                                                                                                    
                                                                                                    
                           
<?xpacket end="w"?></metadata>
<defs>
    <style>
      .cls-1 {
        fill: none;
        stroke: #f37a21;
        stroke-width: 2px;
      }

      .cls-2 {
        fill: #f37a21;
        fill-rule: evenodd;
      }
    </style>
  </defs>
  <ellipse id="Ellipse_1_copy_2" data-name="Ellipse 1 copy 2" class="cls-1" cx="26.469" cy="26.5" rx="25.469" ry="25.5"/>
  <path class="cls-2" d="M17.169,38.859a0.526,0.526,0,0,0,.213-0.045c1.7-.741,4.57-1.126,8.534-1.147L26.3,38.438a0.533,0.533,0,1,0,.953-0.477l-0.532-1.067a0.533,0.533,0,0,0-.477-0.295c-4.342,0-7.38.4-9.288,1.236A0.534,0.534,0,0,0,17.169,38.859ZM44.892,39.8H43.826V37.133a0.535,0.535,0,0,0-.156-0.377l-3.2-3.2a1.578,1.578,0,0,0,.16-0.686,1.6,1.6,0,1,0-1.6,1.6,1.577,1.577,0,0,0,.684-0.16l3.045,3.047V39.8H15.055a1.067,1.067,0,0,0-1.066,1.067v1.6a0.533,0.533,0,1,0,1.066,0v-1.6H44.892v1.6a0.533,0.533,0,1,0,1.066,0v-1.6A1.067,1.067,0,0,0,44.892,39.8Zm-5.861-6.4a0.533,0.533,0,1,1,.533-0.533A0.534,0.534,0,0,1,39.031,33.4ZM21.6,26.953A38.948,38.948,0,0,0,24.2,32.629l0.084,0.127c0.684,1.038,1.828,2.776,5.687,2.776s5-1.738,5.687-2.776l0.084-.127a39.047,39.047,0,0,0,2.606-5.676A1.6,1.6,0,0,0,39.564,25.4V23.267A1.6,1.6,0,0,0,38.5,21.758V19c0-2.106-1.108-6-5.2-6.371a1.213,1.213,0,0,0-.184-0.6C32.586,11.178,31.115,11,29.973,11c-9.48,0-9.59,8.976-9.59,9.067a0.532,0.532,0,0,0,.532.533h0a0.533,0.533,0,0,0,.533-0.532,7.954,7.954,0,0,1,8.525-8c1.507,0,2.11.326,2.23,0.519a0.292,0.292,0,0,1-.043.309,0.533,0.533,0,0,0,.477.772c4.724,0,4.794,5.116,4.8,5.333v3.2a0.533,0.533,0,0,0,.533.533,0.533,0.533,0,0,1,.533.533V25.4a0.534,0.534,0,0,1-.533.533,0.534,0.534,0,0,0-.5.346,42.411,42.411,0,0,1-2.608,5.758l-0.087.132c-0.638.97-1.513,2.3-4.8,2.3s-4.159-1.327-4.8-2.3l-0.088-.132a42.544,42.544,0,0,1-2.608-5.758,0.533,0.533,0,0,0-.5-0.346,0.534,0.534,0,0,1-.533-0.533V23.267a0.53,0.53,0,0,1,.151-0.372,1.473,1.473,0,0,0,1.251.892l1.823,1.369A2.128,2.128,0,0,0,26.777,27h1.066a2.134,2.134,0,0,0,2.131-2.133A2.135,2.135,0,0,0,32.1,27H33.17a2.128,2.128,0,0,0,2.1-1.845l1.947-1.461a0.533,0.533,0,0,0-.639-0.853l-1.358,1.02A1.6,1.6,0,0,0,33.7,22.733H31.572a1.6,1.6,0,0,0-1.6,1.6,1.6,1.6,0,0,0-1.6-1.6H26.244a1.6,1.6,0,0,0-1.519,1.126L23.708,23.1a14.556,14.556,0,0,0,.907-3.568c1.679-.03,6.538-0.235,8.7-1.586a9.038,9.038,0,0,0,2.143,3.567,0.533,0.533,0,1,0,.753-0.754c-0.02-.02-1.975-2-1.975-3.89a0.533,0.533,0,0,0-.989-0.275c-0.776,1.293-5.808,1.875-9.134,1.875A0.533,0.533,0,0,0,23.58,19a12.422,12.422,0,0,1-.843,3.659,0.523,0.523,0,0,1-.222-0.459,0.533,0.533,0,0,0-.533-0.533,1.6,1.6,0,0,0-1.6,1.6V25.4A1.6,1.6,0,0,0,21.6,26.953Zm9.443-2.62a0.534,0.534,0,0,1,.533-0.533H33.7a0.534,0.534,0,0,1,.533.533v0.533a1.067,1.067,0,0,1-1.065,1.067H32.1a1.067,1.067,0,0,1-1.066-1.067V24.333h0Zm-5.328,0a0.534,0.534,0,0,1,.533-0.533h2.131a0.534,0.534,0,0,1,.533.533v0.533a1.067,1.067,0,0,1-1.065,1.067H26.777a1.067,1.067,0,0,1-1.065-1.067V24.333ZM32.637,30.2a0.534,0.534,0,0,0-.53-0.535,4.817,4.817,0,0,1-1.895-.477,0.535,0.535,0,0,0-.476,0,4.819,4.819,0,0,1-1.893.477,0.533,0.533,0,0,0,0,1.067,5.85,5.85,0,0,0,2.131-.478,5.848,5.848,0,0,0,2.131.478A0.533,0.533,0,0,0,32.637,30.2Zm1.065,6.42a0.535,0.535,0,0,0-.473.291L32.7,37.957a0.533,0.533,0,1,0,.95.485l0.384-.754a30.91,30.91,0,0,1,6.976.649A0.533,0.533,0,0,0,41.26,37.3,32.037,32.037,0,0,0,33.7,36.622Zm-4.261.511V38.2a0.533,0.533,0,1,0,1.066,0V37.133A0.533,0.533,0,1,0,29.441,37.133Zm0-5.867a0.533,0.533,0,0,0,0,1.067h1.066a0.533,0.533,0,0,0,0-1.067H29.441Z" transform="translate(-3 -3)"/>
</svg>
