<svg xmlns="http://www.w3.org/2000/svg" width="174.9" height="174.9" viewBox="0 0 53 53">
  <metadata><?xpacket begin="﻿" id="W5M0MpCehiHzreSzNTczkc9d"?>
<x:xmpmeta xmlns:x="adobe:ns:meta/" x:xmptk="Adobe XMP Core 5.6-c142 79.160924, 2017/07/13-01:06:39        ">
   <rdf:RDF xmlns:rdf="http://www.w3.org/1999/02/22-rdf-syntax-ns#">
      <rdf:Description rdf:about=""/>
   </rdf:RDF>
</x:xmpmeta>
                                                                                                    
                                                                                                    
                                                                                                    
                                                                                                    
                                                                                                    
                                                                                                    
                                                                                                    
                                                                                                    
                                                                                                    
                                                                                                    
                                                                                                    
                                                                                                    
                                                                                                    
                                                                                                    
                                                                                                    
                                                                                                    
                                                                                                    
                                                                                                    
                                                                                                    
                                                                                                    
                           
<?xpacket end="w"?></metadata>
<defs>
    <style>
      .cls-1 {
        fill: none;
        stroke: #c72e31;
        stroke-width: 2px;
      }

      .cls-2 {
        fill: #c72e31;
        fill-rule: evenodd;
      }
    </style>
  </defs>
  <circle class="cls-1" cx="26.5" cy="26.5" r="25.5"/>
  <path class="cls-2" d="M46,34.794c0-.008,0-0.015,0-0.022s0,0,0-.005,0-.024,0-0.036,0-.012,0-0.018,0-.021,0-0.031l0-.023c0-.008,0-0.016-0.006-0.024s0-.019-0.008-0.029l-0.007-.018c0-.011-0.008-0.022-0.013-0.032l0-.005L40.3,22.112v-1.63h0.036a1.106,1.106,0,0,0,1.1-1.1V19.292A1.1,1.1,0,0,0,40.51,18.2L31.175,16.7V15.738a2.245,2.245,0,1,0-3.35,0v0.905L18.485,18.2a1.1,1.1,0,0,0-.923,1.09v0.087a1.106,1.106,0,0,0,1.1,1.1H18.7v1.63L13.048,34.551l0,0.005c0,0.011-.009.021-0.013,0.032l-0.007.018c0,0.009-.006.019-0.008,0.029s0,0.016-.006.024,0,0.015,0,.023,0,0.021-.005.031,0,0.012,0,.018,0,0.024,0,.036,0,0,0,0,0,0.015,0,.023,0,0.012,0,.018c0.033,2.2,2.759,3.915,6.235,3.915s6.2-1.717,6.235-3.915c0-.006,0-0.012,0-0.018s0-.015,0-0.022a0.042,0.042,0,0,0,0,0c0-.012,0-0.024,0-0.036s0-.012,0-0.018,0-.021,0-0.031,0-.015,0-0.022,0-.016-0.006-0.024,0-.019-0.008-0.029l-0.007-.018c0-.011-0.008-0.022-0.013-0.032l0-.005L19.771,22.112v-1.63h8.054V32.1a1.105,1.105,0,0,0-.57.966v7.875l-3.386,1.058a1.668,1.668,0,0,0-1.175,1.6v0.872a0.534,0.534,0,0,0,.534.534H35.772a0.534,0.534,0,0,0,.535-0.534V43.593a1.668,1.668,0,0,0-1.175-1.6l-3.386-1.058V33.062a1.105,1.105,0,0,0-.57-0.966V20.482h8.054v1.63L33.575,34.551l0,0.005c0,0.011-.009.021-0.013,0.032l-0.007.019c0,0.009-.005.019-0.008,0.029s0,0.016-.006.024,0,0.015,0,.022,0,0.021,0,.031,0,0.012,0,.018,0,0.024,0,.036,0,0,0,.005,0,0.015,0,.023,0,0.012,0,.018c0.033,2.2,2.759,3.915,6.235,3.915s6.2-1.717,6.235-3.915C46,34.807,46,34.8,46,34.794ZM19.236,23.52l4.872,10.718H14.365Zm0,14.139c-2.475,0-4.611-1.032-5.074-2.352H24.311C23.847,36.627,21.712,37.659,19.236,37.659Zm11.44-4.6v7.733H28.324V33.062a0.036,0.036,0,0,1,.036-0.036H30.64A0.036,0.036,0,0,1,30.676,33.062Zm-1.782-1.1V16.407a2.234,2.234,0,0,0,1.212,0v15.55H28.894ZM29.5,13.069a1.176,1.176,0,1,1-1.176,1.176A1.177,1.177,0,0,1,29.5,13.069ZM18.666,19.413a0.036,0.036,0,0,1-.036-0.036V19.29a0.036,0.036,0,0,1,.03-0.035l9.165-1.527v1.685H18.666ZM35.237,43.593v0.338H23.762V43.593a0.6,0.6,0,0,1,.425-0.578l3.683-1.151h3.258l3.683,1.151A0.6,0.6,0,0,1,35.237,43.593ZM31.175,17.778l9.164,1.479a0.036,0.036,0,0,1,.03.035v0.085a0.036,0.036,0,0,1-.036.036H31.175V17.778Zm8.588,5.741,4.872,10.718H34.892Zm0,14.139c-2.475,0-4.611-1.032-5.074-2.352H44.838C44.374,36.627,42.239,37.659,39.763,37.659Z" transform="translate(-3 -3)"/>
</svg>
