<svg xmlns="http://www.w3.org/2000/svg" width="174.9" height="174.9" viewBox="0 0 53 53">
  <metadata><?xpacket begin="﻿" id="W5M0MpCehiHzreSzNTczkc9d"?>
<x:xmpmeta xmlns:x="adobe:ns:meta/" x:xmptk="Adobe XMP Core 5.6-c142 79.160924, 2017/07/13-01:06:39        ">
   <rdf:RDF xmlns:rdf="http://www.w3.org/1999/02/22-rdf-syntax-ns#">
      <rdf:Description rdf:about=""/>
   </rdf:RDF>
</x:xmpmeta>
                                                                                                    
                                                                                                    
                                                                                                    
                                                                                                    
                                                                                                    
                                                                                                    
                                                                                                    
                                                                                                    
                                                                                                    
                                                                                                    
                                                                                                    
                                                                                                    
                                                                                                    
                                                                                                    
                                                                                                    
                                                                                                    
                                                                                                    
                                                                                                    
                                                                                                    
                                                                                                    
                           
<?xpacket end="w"?></metadata>
<defs>
    <style>
      .cls-1 {
        fill: none;
        stroke: #feb834;
        stroke-width: 2px;
      }

      .cls-2 {
        fill: #feb834;
        fill-rule: evenodd;
      }
    </style>
  </defs>
  <circle class="cls-1" cx="26.5" cy="26.5" r="25.5"/>
  <path class="cls-2" d="M30.917,27.279a0.467,0.467,0,0,0,.628.2,40,40,0,0,1,4.129-1.837,0.467,0.467,0,0,0-.282-0.89,40.005,40.005,0,0,0-4.271,1.9A0.467,0.467,0,0,0,30.917,27.279Zm0.417-5.345a0.466,0.466,0,0,0,.211-0.051,39.974,39.974,0,0,1,4.129-1.837,0.467,0.467,0,0,0-.282-0.89,40.026,40.026,0,0,0-4.271,1.9A0.466,0.466,0,0,0,31.334,21.934ZM42.533,21a0.467,0.467,0,0,0-.467.467v18.2a1.4,1.4,0,0,1-1.4,1.4h-11.2V39.993a13.753,13.753,0,0,1,4.2-.793,24.067,24.067,0,0,1,6.853.909,0.467,0.467,0,0,0,.614-0.443V19.134a0.466,0.466,0,0,0-.365-0.456s-0.366-.082-0.991-0.2a0.467,0.467,0,0,0-.169.918c0.239,0.044.438,0.082,0.592,0.113V39.046a26.355,26.355,0,0,0-6.533-.78,14.658,14.658,0,0,0-4.648.894,10.932,10.932,0,0,0-4.218-.894,31.448,31.448,0,0,0-7,.8V19.495a30.715,30.715,0,0,1,7-.828,10.118,10.118,0,0,1,3.733.769V37.8a0.467,0.467,0,0,0,.707.4,53.433,53.433,0,0,1,8.774-4.157,0.467,0.467,0,0,0,.319-0.443V14.467A0.467,0.467,0,0,0,37.7,14.03a49.635,49.635,0,0,0-7.55,3.775,0.467,0.467,0,1,0,.495.791A49.871,49.871,0,0,1,37.4,15.149V33.266a52.307,52.307,0,0,0-7.933,3.724V19.134a0.467,0.467,0,0,0-.258-0.418,10.806,10.806,0,0,0-4.409-.982,30.283,30.283,0,0,0-7.6.952,0.466,0.466,0,0,0-.338.449V39.667a0.467,0.467,0,0,0,.467.467,0.462,0.462,0,0,0,.128-0.018A29.971,29.971,0,0,1,24.8,39.2a10.1,10.1,0,0,1,3.733.769v1.1h-11.2a1.4,1.4,0,0,1-1.4-1.4v-18.2a0.467,0.467,0,0,0-.933,0v18.2A2.336,2.336,0,0,0,17.333,42H40.667A2.336,2.336,0,0,0,43,39.667v-18.2A0.467,0.467,0,0,0,42.533,21ZM30.917,24.479a0.467,0.467,0,0,0,.628.2,39.974,39.974,0,0,1,4.129-1.837,0.467,0.467,0,0,0-.282-0.89,40.026,40.026,0,0,0-4.271,1.9A0.467,0.467,0,0,0,30.917,24.479Zm0,5.6a0.467,0.467,0,0,0,.628.2,40.019,40.019,0,0,1,4.129-1.837,0.467,0.467,0,0,0-.282-0.89,40.052,40.052,0,0,0-4.271,1.9A0.467,0.467,0,0,0,30.917,30.079Zm-4.611-7.418a14.811,14.811,0,0,0-6.294.222,0.467,0.467,0,0,0,.12.917,0.476,0.476,0,0,0,.121-0.016,14.064,14.064,0,0,1,5.839-.215A0.467,0.467,0,1,0,26.306,22.661Zm0,2.8a14.822,14.822,0,0,0-6.294.222,0.467,0.467,0,0,0,.12.918,0.472,0.472,0,0,0,.121-0.016,14.065,14.065,0,0,1,5.839-.215A0.467,0.467,0,1,0,26.306,25.461Zm4.611,7.418a0.467,0.467,0,0,0,.628.2,40,40,0,0,1,4.129-1.837,0.467,0.467,0,0,0-.282-0.89,40.01,40.01,0,0,0-4.271,1.9A0.467,0.467,0,0,0,30.917,32.879Zm-4.611-4.618a14.81,14.81,0,0,0-6.294.222,0.467,0.467,0,0,0,.12.918,0.473,0.473,0,0,0,.121-0.016,14.065,14.065,0,0,1,5.839-.215A0.467,0.467,0,1,0,26.306,28.261Zm0,5.6a14.812,14.812,0,0,0-6.294.222,0.467,0.467,0,0,0,.12.918,0.473,0.473,0,0,0,.121-0.016,14.065,14.065,0,0,1,5.839-.215A0.467,0.467,0,1,0,26.306,33.86Zm0-2.8a14.8,14.8,0,0,0-6.294.222,0.467,0.467,0,0,0,.12.918,0.473,0.473,0,0,0,.121-0.016,14.064,14.064,0,0,1,5.839-.215A0.467,0.467,0,1,0,26.306,31.061Z" transform="translate(-3 -3)"/>
</svg>
