<svg xmlns="http://www.w3.org/2000/svg" width="174.9" height="174.9" viewBox="0 0 53 53">
  <metadata><?xpacket begin="﻿" id="W5M0MpCehiHzreSzNTczkc9d"?>
<x:xmpmeta xmlns:x="adobe:ns:meta/" x:xmptk="Adobe XMP Core 5.6-c142 79.160924, 2017/07/13-01:06:39        ">
   <rdf:RDF xmlns:rdf="http://www.w3.org/1999/02/22-rdf-syntax-ns#">
      <rdf:Description rdf:about=""/>
   </rdf:RDF>
</x:xmpmeta>
                                                                                                    
                                                                                                    
                                                                                                    
                                                                                                    
                                                                                                    
                                                                                                    
                                                                                                    
                                                                                                    
                                                                                                    
                                                                                                    
                                                                                                    
                                                                                                    
                                                                                                    
                                                                                                    
                                                                                                    
                                                                                                    
                                                                                                    
                                                                                                    
                                                                                                    
                                                                                                    
                           
<?xpacket end="w"?></metadata>
<defs>
    <style>
      .cls-1 {
        fill: none;
        stroke: #94abf1;
        stroke-width: 2px;
      }

      .cls-2 {
        fill: #94abf1;
        fill-rule: evenodd;
      }
    </style>
  </defs>
  <circle class="cls-1" cx="26.5" cy="26.5" r="25.5"/>
  <path class="cls-2" d="M31.905,41.189a0.533,0.533,0,0,0-.7.74,0.533,0.533,0,0,0,.71.741,0.825,0.825,0,0,0,.513-0.74A0.886,0.886,0,0,0,31.905,41.189Zm-1.015-16.3a1.474,1.474,0,0,1,.244.246,1.369,1.369,0,0,1-.4.707l-0.7.776a0.533,0.533,0,0,0,.793.714l0.679-.756a2.345,2.345,0,0,0,.69-1.444,1.415,1.415,0,0,0-.636-1.069A0.533,0.533,0,0,0,30.89,24.891ZM26,37.97a4.179,4.179,0,0,1-1.271-2.7,3.59,3.59,0,0,1,.739-2.052A0.533,0.533,0,1,0,24.6,32.6a4.629,4.629,0,0,0-.933,2.665A5.208,5.208,0,0,0,25.226,38.7,0.533,0.533,0,0,0,26,37.97ZM20.3,27.294c-1.584.528-2.494,0.43-3.131-.338l-0.517-.828,2.261-.188a0.533,0.533,0,1,0-.088-1.063l-2.809.233-0.741-1.186,3.689-.666a0.533,0.533,0,1,0-.19-1.05l-4.108.741-0.133-.212a2.362,2.362,0,0,1-.465-1.338,0.847,0.847,0,0,1,.66-0.548l11.7-2.128a0.533,0.533,0,0,0-.191-1.05L14.5,19.809l-0.059.014A1.793,1.793,0,0,0,13,21.4a3.387,3.387,0,0,0,.614,1.883l2.667,4.267a0.447,0.447,0,0,0,.037.052,2.828,2.828,0,0,0,2.321,1.093,6.456,6.456,0,0,0,2-.388A0.533,0.533,0,0,0,20.3,27.294ZM33.5,19.856a5.157,5.157,0,0,0-1.805-.392,0.54,0.54,0,0,0-.569.5,0.533,0.533,0,0,0,.5.569,4.313,4.313,0,0,1,1.4.282A4.783,4.783,0,0,1,35.4,25.133c0,2.373-2.535,4.438-2.561,4.459a0.533,0.533,0,0,0,.667.832c0.121-.1,2.961-2.4,2.961-5.291A5.873,5.873,0,0,0,33.5,19.856Zm10.049-.034L43.5,19.808,31.762,17.675a0.533,0.533,0,0,0-.191,1.05l11.7,2.128a0.847,0.847,0,0,1,.66.548,2.322,2.322,0,0,1-.452,1.317l-0.146.233-4.107-.741a0.533,0.533,0,0,0-.19,1.05l3.689,0.666L41.986,25.11l-2.809-.233a0.533,0.533,0,1,0-.089,1.063l2.261,0.187-0.517.829c-0.636.769-1.546,0.867-3.131,0.338a0.533,0.533,0,1,0-.337,1.012,6.46,6.46,0,0,0,2,.388A2.828,2.828,0,0,0,41.682,27.6a0.463,0.463,0,0,0,.037-0.052L44.4,23.262A3.351,3.351,0,0,0,45,21.4,1.792,1.792,0,0,0,43.554,19.822ZM27.687,34.374a0.533,0.533,0,0,0-.695.293,1.588,1.588,0,0,0-.126.6,1.813,1.813,0,0,0,.3.945,0.533,0.533,0,1,0,.908-0.561,0.78,0.78,0,0,1-.146-0.384,0.565,0.565,0,0,1,.047-0.2A0.533,0.533,0,0,0,27.687,34.374ZM27.416,22.467a0.533,0.533,0,0,0,0-1.067H27.411A0.533,0.533,0,0,0,27.416,22.467Zm2.117,5.646V23.786A1.98,1.98,0,0,0,30.6,21.933a2.121,2.121,0,0,0-1.067-1.875V18.1a1.6,1.6,0,1,0-1.067,0v1.521a6.633,6.633,0,0,0-1.605-.179,5.961,5.961,0,0,0-2.366.413,5.874,5.874,0,0,0-2.962,5.277c0,2.89,2.75,5.123,2.866,5.217L28.467,33.6v3.819l-1.444,1.734A4.612,4.612,0,0,0,25.8,42.2c0,1.93,1.346,2.6,2.428,3.144l0.1,0.052,0.134,0.067v1a0.533,0.533,0,0,0,1.067,0V45.95a2.992,2.992,0,0,0,1.034.234,1.183,1.183,0,0,0,.991-0.462c0.651-.859-0.077-1.866-0.638-2.349l-1.642-1.231,3.265-3.267a5.232,5.232,0,0,0,1.79-3.609,6.391,6.391,0,0,0-1.756-4.11ZM29,16.067a0.533,0.533,0,1,1-.533.533A0.534,0.534,0,0,1,29,16.067ZM31.823,38.09L28.09,41.823a0.533,0.533,0,0,0,.057.8L30.252,44.2a1.049,1.049,0,0,1,.457.874,0.149,0.149,0,0,1-.141.039,5.438,5.438,0,0,1-1.757-.675l-0.105-.053c-1.14-.57-1.838-0.98-1.838-2.189a3.6,3.6,0,0,1,.943-2.325l2.634-3.164a2.345,2.345,0,0,0,.69-1.444,2.345,2.345,0,0,0-.69-1.444c-0.014-.014-0.029-0.027-0.044-0.039l-5.333-4.266c-0.024-.02-2.467-2.011-2.467-4.384a4.783,4.783,0,0,1,2.372-4.323,5.052,5.052,0,0,1,1.89-.3c0.627,0,2.672.1,2.672,1.424,0,0.742-.416.954-1.435,1.294a7.207,7.207,0,0,0-.936.362A2.236,2.236,0,0,0,25.8,25.133a2.345,2.345,0,0,0,.69,1.444l2.11,2.11a0.553,0.553,0,0,0,.056.057l3.166,3.166a5.343,5.343,0,0,1,1.444,3.356A4.239,4.239,0,0,1,31.823,38.09Zm-2.29-1.949V34.456L29.707,34.6a1.3,1.3,0,0,1,.36.671,1.391,1.391,0,0,1-.41.725ZM28.467,24.229v2.817l-1.221-1.221a1.381,1.381,0,0,1-.381-0.668,2.009,2.009,0,0,1,.774-0.613,6.183,6.183,0,0,1,.8-0.3Z" transform="translate(-3 -3)"/>
</svg>
