<svg xmlns="http://www.w3.org/2000/svg" width="174.9" height="174.9" viewBox="0 0 53 53">
  <metadata><?xpacket begin="﻿" id="W5M0MpCehiHzreSzNTczkc9d"?>
<x:xmpmeta xmlns:x="adobe:ns:meta/" x:xmptk="Adobe XMP Core 5.6-c142 79.160924, 2017/07/13-01:06:39        ">
   <rdf:RDF xmlns:rdf="http://www.w3.org/1999/02/22-rdf-syntax-ns#">
      <rdf:Description rdf:about=""/>
   </rdf:RDF>
</x:xmpmeta>
                                                                                                    
                                                                                                    
                                                                                                    
                                                                                                    
                                                                                                    
                                                                                                    
                                                                                                    
                                                                                                    
                                                                                                    
                                                                                                    
                                                                                                    
                                                                                                    
                                                                                                    
                                                                                                    
                                                                                                    
                                                                                                    
                                                                                                    
                                                                                                    
                                                                                                    
                                                                                                    
                           
<?xpacket end="w"?></metadata>
<defs>
    <style>
      .cls-1 {
        fill: none;
        stroke: #3a5795;
        stroke-width: 2px;
      }

      .cls-2 {
        fill: #3a5795;
        fill-rule: evenodd;
      }
    </style>
  </defs>
  <circle class="cls-1" cx="26.5" cy="26.5" r="25.5"/>
  <path id="Forma_1" data-name="Forma 1" class="cls-2" d="M41.764,27.435c0.858-4.808-.543-11.416-5.645-14.565a13.8,13.8,0,0,0-10.6-1.376,13.412,13.412,0,0,0-9.724,9.8,9.982,9.982,0,0,0-.32,2.971A10.25,10.25,0,0,0,15.81,26.1a8.172,8.172,0,0,1,.328,2.355,6.03,6.03,0,0,1-1.217,2.8c-0.61.949-1.137,1.767-.832,2.523a1.789,1.789,0,0,0,1.373.907,0.64,0.64,0,0,0,.1.011,0.5,0.5,0,0,1,.418.143,0.541,0.541,0,0,1,.158.424c0,1.177.028,1.785,0.5,2.063a1.057,1.057,0,0,0-.085.28,1.028,1.028,0,0,0,.309.893,1.65,1.65,0,0,0,.871.459L17.8,38.971a1.477,1.477,0,0,1,.017.255,6.29,6.29,0,0,1-.043.63c-0.091.906-.216,2.147,1.541,2.74a3.513,3.513,0,0,0,1.084.136,16.73,16.73,0,0,0,4.881-.965,6.549,6.549,0,0,1,.8,2.667,0.575,0.575,0,0,0,.161.4,0.541,0.541,0,0,0,.388.166H40.357a0.547,0.547,0,0,0,.513-0.392,0.59,0.59,0,0,0-.2-0.638c-0.568-.445-2.45-5.134-2.507-6.818,0.166-.389.388-0.825,0.651-1.331A27.163,27.163,0,0,0,41.764,27.435Zm-4.7,9.66a21.079,21.079,0,0,0,2.215,6.772H27.133a8.287,8.287,0,0,0-.807-2.485A8.854,8.854,0,0,0,29.991,39a0.579,0.579,0,0,0-.1-0.793,0.538,0.538,0,0,0-.769.1c-1.554,2.1-8.019,3.691-9.463,3.2-0.914-.308-0.878-0.67-0.79-1.546a7.319,7.319,0,0,0,.049-0.747,1.149,1.149,0,0,0-.934-1.374,0.692,0.692,0,0,1-.3-0.118,1.522,1.522,0,0,1,.363-0.265,0.572,0.572,0,0,0,.293-0.637,0.553,0.553,0,0,0-.535-0.439c-0.2,0-.419,0-0.535-0.015a9,9,0,0,1-.035-1.117,1.685,1.685,0,0,0-.456-1.2,1.581,1.581,0,0,0-1.151-.5,0.894,0.894,0,0,1-.526-0.222,4.044,4.044,0,0,1,.733-1.46,6.954,6.954,0,0,0,1.4-3.4,8.184,8.184,0,0,0-.227-2.1A5.426,5.426,0,0,1,19.08,25.2a1.652,1.652,0,0,1,.816.059,0.547,0.547,0,0,0,.675-0.4,0.569,0.569,0,0,0-.383-0.7,2.689,2.689,0,0,0-1.335-.076,5.592,5.592,0,0,0-2.127,1.09,6.925,6.925,0,0,1-.152-1,8.637,8.637,0,0,1,.291-2.617,12.157,12.157,0,0,1,8.942-8.973,12.689,12.689,0,0,1,9.747,1.254c4.654,2.871,5.921,8.953,5.13,13.388a25.793,25.793,0,0,1-2.834,8.056c-0.3.581-.562,1.083-0.751,1.547A0.568,0.568,0,0,0,37.064,37.1Zm1.09-8.365A1.69,1.69,0,0,0,36.816,26.9l-1.052-1.5a1.711,1.711,0,0,0,.147-0.389l1.018-.42a1.609,1.609,0,0,0,1.886.438,1.7,1.7,0,0,0,.984-1.717,1.678,1.678,0,0,0-1.28-1.495l-0.825-1.7a1.733,1.733,0,0,0,.117-2.235,1.607,1.607,0,0,0-2.134-.4l-0.92-.788a1.73,1.73,0,0,0,.108-0.588,1.7,1.7,0,0,0-1.032-1.578,1.608,1.608,0,0,0-1.8.4l-1.628-.42a1.624,1.624,0,0,0-3.15-.02l-2.175.449a1.6,1.6,0,0,0-2.175-.211,1.726,1.726,0,0,0-.446,2.207l-1.066,1.465A1.706,1.706,0,0,0,21.3,21.72l0.881,2.245a1.736,1.736,0,0,0-.36,1.878,1.626,1.626,0,0,0,3.062-.1H27.83a1.586,1.586,0,0,0,1.8,1.107l1.823,2.861a1.737,1.737,0,0,0-.222,1.949,1.628,1.628,0,0,0,1.709.86,1.669,1.669,0,0,0,1.351-1.381l1.361-1.122a1.594,1.594,0,0,0,.865.259A1.667,1.667,0,0,0,38.154,28.73Zm0.007-5.823a0.555,0.555,0,0,1,.545.489,0.567,0.567,0,0,1-.4.623,0.545,0.545,0,0,1-.652-0.321c0-.005,0-0.011,0-0.016l0-.005a0.576,0.576,0,0,1-.04-0.2A0.559,0.559,0,0,1,38.161,22.906Zm-2.185-4.081a0.551,0.551,0,1,1,.538.682,0.528,0.528,0,0,1-.2-0.041l0,0s-0.01,0-.015,0A0.57,0.57,0,0,1,35.976,18.826ZM35.43,20.211h0l-1.015,2.617L32.637,21.36a1.7,1.7,0,0,0,.508-0.806L35.32,20.1C35.354,20.143,35.392,20.176,35.43,20.211Zm-0.585,4.548a0.549,0.549,0,0,1-.6.408,0.568,0.568,0,0,1,.075-1.128,0.53,0.53,0,0,1,.2.041l0,0c0.005,0,.01,0,0.015,0A0.571,0.571,0,0,1,34.845,24.759Zm-1.626-9.217a0.567,0.567,0,1,1-.549.566A0.558,0.558,0,0,1,33.219,15.542Zm-2.889.122,1.254,0.323c0,0.041-.012.08-0.012,0.121a1.676,1.676,0,0,0,1.647,1.7,1.593,1.593,0,0,0,.835-0.243l0.92,0.788a1.731,1.731,0,0,0-.108.588c0,0.034.008,0.066,0.01,0.1l-1.788.369A1.657,1.657,0,0,0,31.825,18.4l-2.01-2.074A1.7,1.7,0,0,0,30.33,15.664Zm1.791,4.41a0.549,0.549,0,1,1-.549-0.566A0.558,0.558,0,0,1,32.121,20.074Zm-3.294-5.665a0.567,0.567,0,1,1-.549.566A0.558,0.558,0,0,1,28.827,14.409Zm0.109,2.613,1.648,1.7a1.694,1.694,0,0,0-.558.785h-1.3a1.687,1.687,0,0,0-.716-0.893Zm-3.413-1.014,1.788-.369a1.687,1.687,0,0,0,.686.8l-1,1.714-1.723-1.141a1.722,1.722,0,0,0,.255-0.9C25.533,16.074,25.525,16.042,25.523,16.008Zm2.206,4.066a0.549,0.549,0,1,1-.549-0.566A0.558,0.558,0,0,1,27.729,20.074Zm-3.843-4.532a0.567,0.567,0,1,1-.549.566A0.558,0.558,0,0,1,23.885,15.542Zm-0.6,2.146a1.5,1.5,0,0,0,1.052.046l1.7,1.122a1.7,1.7,0,0,0-.4.651h-2.4a1.693,1.693,0,0,0-.649-0.855Zm-1.6,2.953a0.567,0.567,0,1,1,.549-0.567A0.558,0.558,0,0,1,21.689,20.64Zm1.647,5.1a0.567,0.567,0,1,1,.549-0.567A0.558,0.558,0,0,1,23.336,25.739Zm0.312-2.233a1.6,1.6,0,0,0-.312-0.033,1.545,1.545,0,0,0-.159.017l-0.748-1.906a1.682,1.682,0,0,0,.806-0.943h2.4a1.7,1.7,0,0,0,.5.732Zm4.181,1.1H24.882a1.7,1.7,0,0,0-.251-0.471l2.7-2.318,0.918,2.125A1.7,1.7,0,0,0,27.83,24.606Zm0.9-3.965h1.3a1.687,1.687,0,0,0,.716.893L29.6,23.5a1.581,1.581,0,0,0-.224-0.024c-0.043,0-.082.01-0.124,0.013L28.309,21.3A1.7,1.7,0,0,0,28.726,20.64Zm0.65,5.1a0.567,0.567,0,1,1,.549-0.567A0.558,0.558,0,0,1,29.376,25.739Zm2.344-3.685,1.533,1.266a1.7,1.7,0,0,0-.508.806l-1.853.382a1.707,1.707,0,0,0-.314-0.49ZM32.67,31.4a0.567,0.567,0,1,1,.549-0.566A0.558,0.558,0,0,1,32.67,31.4Zm2.2-2.832a1.721,1.721,0,0,0,.1.555l-0.927.764a1.564,1.564,0,0,0-1.618-.726L30.6,26.3a1.7,1.7,0,0,0,.352-0.651L32.8,25.27a1.627,1.627,0,0,0,2.151.9l0.677,0.969A1.709,1.709,0,0,0,34.867,28.571ZM35.4,23.336l1.047-2.7c0.022,0,.043.007,0.065,0.007a1.576,1.576,0,0,0,.2-0.02l0.665,1.368a1.7,1.7,0,0,0-.862,1.485c0,0.023.006,0.044,0.007,0.067l-0.738.3A1.7,1.7,0,0,0,35.4,23.336Zm1.112,5.8a0.567,0.567,0,1,1,.549-0.566A0.558,0.558,0,0,1,36.514,29.138Z" transform="translate(-3 -3)"/>
</svg>
