<svg xmlns="http://www.w3.org/2000/svg" width="174.9" height="174.9" viewBox="0 0 53 53">
  <metadata><?xpacket begin="﻿" id="W5M0MpCehiHzreSzNTczkc9d"?>
<x:xmpmeta xmlns:x="adobe:ns:meta/" x:xmptk="Adobe XMP Core 5.6-c142 79.160924, 2017/07/13-01:06:39        ">
   <rdf:RDF xmlns:rdf="http://www.w3.org/1999/02/22-rdf-syntax-ns#">
      <rdf:Description rdf:about=""/>
   </rdf:RDF>
</x:xmpmeta>
                                                                                                    
                                                                                                    
                                                                                                    
                                                                                                    
                                                                                                    
                                                                                                    
                                                                                                    
                                                                                                    
                                                                                                    
                                                                                                    
                                                                                                    
                                                                                                    
                                                                                                    
                                                                                                    
                                                                                                    
                                                                                                    
                                                                                                    
                                                                                                    
                                                                                                    
                                                                                                    
                           
<?xpacket end="w"?></metadata>
<defs>
    <style>
      .cls-1 {
        fill: none;
        stroke: #b4cedc;
        stroke-width: 2px;
      }

      .cls-2 {
        fill: #b4cedc;
        fill-rule: evenodd;
      }
    </style>
  </defs>
  <circle class="cls-1" cx="26.5" cy="26.5" r="25.5"/>
  <path id="Forma_1" data-name="Forma 1" class="cls-2" d="M38.946,23.63l-0.867-2.6a0.433,0.433,0,0,0-.607-0.251l-2.6,1.3a0.433,0.433,0,0,0,.387.776l1.416-.708C32.949,28.962,26.153,33.3,19.033,33.3v0.867c7.53,0,14.706-4.63,18.55-11.878L38.122,23.9A0.434,0.434,0,0,0,38.946,23.63ZM41.567,19H16.433a0.433,0.433,0,0,0-.433.433v19.5a0.433,0.433,0,0,0,.433.433H24.08l-1.56,5.072a0.433,0.433,0,0,0,.829.255l0.838-2.727h9.626l0.839,2.727a0.433,0.433,0,1,0,.829-0.255L33.92,39.366h7.647A0.433,0.433,0,0,0,42,38.933v-19.5A0.433,0.433,0,0,0,41.567,19ZM24.453,41.1l0.534-1.733h8.026L33.546,41.1H24.453Zm16.68-2.6H16.867V19.867H41.133V38.5ZM21.2,35.033H19.467a0.433,0.433,0,0,0-.433.433V37.2a0.433,0.433,0,0,0,.433.433H21.2a0.433,0.433,0,0,0,.433-0.433V35.466A0.433,0.433,0,0,0,21.2,35.033Zm-0.433,1.733H19.9V35.9h0.867v0.867Zm4.767-2.6H23.8a0.433,0.433,0,0,0-.433.433v2.6a0.433,0.433,0,0,0,.433.433h1.733a0.433,0.433,0,0,0,.433-0.433V34.6A0.433,0.433,0,0,0,25.533,34.166Zm-0.433,2.6H24.233V35.033H25.1v1.733Zm4.767-4.333H28.133a0.433,0.433,0,0,0-.433.433V37.2a0.433,0.433,0,0,0,.433.433h1.734A0.433,0.433,0,0,0,30.3,37.2V32.866A0.433,0.433,0,0,0,29.867,32.433Zm-0.434,4.333H28.567V33.3h0.867v3.467ZM34.2,29.833H32.467a0.433,0.433,0,0,0-.433.433V37.2a0.433,0.433,0,0,0,.433.433H34.2a0.433,0.433,0,0,0,.433-0.433V30.266A0.433,0.433,0,0,0,34.2,29.833Zm-0.433,6.933H32.9V30.7h0.867v6.067Zm4.767-11.7H36.8a0.433,0.433,0,0,0-.433.433V37.2a0.433,0.433,0,0,0,.433.433h1.733a0.433,0.433,0,0,0,.433-0.433V25.5A0.433,0.433,0,0,0,38.533,25.067ZM38.1,36.766H37.233V25.933H38.1V36.766Z" transform="translate(-3 -3)"/>
</svg>
