<?xml version="1.0" encoding="utf-8"?>
<!-- Generator: Adobe Illustrator 22.1.0, SVG Export Plug-In . SVG Version: 6.00 Build 0)  -->
<svg version="1.1" id="Capa_1" xmlns="http://www.w3.org/2000/svg" xmlns:xlink="http://www.w3.org/1999/xlink" x="0px" y="0px"
	 viewBox="0 0 512 512" style="enable-background:new 0 0 512 512;" xml:space="preserve">
<style type="text/css">
	.st0{fill:#EDC60E;}
</style>
<g>
	<path class="st0" d="M499.8,131.5l-24.6-24.7c-8.5-8.1-18.5-12.2-29.9-12.2c-11.6,0-21.5,4.1-29.6,12.2L256,266.5L96.3,106.8
		c-8.1-8.1-18-12.2-29.6-12.2c-11.4,0-21.4,4.1-29.9,12.2l-24.3,24.7C4.2,139.8,0,149.7,0,161.4c0,11.8,4.2,21.7,12.5,29.6
		l213.9,213.9c7.9,8.3,17.7,12.5,29.6,12.5c11.6,0,21.6-4.2,29.9-12.5l213.9-213.9c8.1-8.1,12.2-18,12.2-29.6
		C512,150,507.9,140,499.8,131.5z"/>
</g>
</svg>
