<svg xmlns="http://www.w3.org/2000/svg" width="57" height="82" viewBox="0 0 57 82">
  <metadata><?xpacket begin="﻿" id="W5M0MpCehiHzreSzNTczkc9d"?>
<x:xmpmeta xmlns:x="adobe:ns:meta/" x:xmptk="Adobe XMP Core 5.6-c142 79.160924, 2017/07/13-01:06:39        ">
   <rdf:RDF xmlns:rdf="http://www.w3.org/1999/02/22-rdf-syntax-ns#">
      <rdf:Description rdf:about=""/>
   </rdf:RDF>
</x:xmpmeta>
                                                                                                    
                                                                                                    
                                                                                                    
                                                                                                    
                                                                                                    
                                                                                                    
                                                                                                    
                                                                                                    
                                                                                                    
                                                                                                    
                                                                                                    
                                                                                                    
                                                                                                    
                                                                                                    
                                                                                                    
                                                                                                    
                                                                                                    
                                                                                                    
                                                                                                    
                                                                                                    
                           
<?xpacket end="w"?></metadata>
<defs>
    <style>
      .cls-1 {
        fill: #1e88e5;
      }

      .cls-1, .cls-2 {
        fill-rule: evenodd;
      }

      .cls-2 {
        fill: #fff;
      }
    </style>
  </defs>
  <path id="Forma_1" data-name="Forma 1" class="cls-1" d="M26.65,80.73a4.493,4.493,0,0,0,1.234,1l0.02,0.01,0.8,0.251,0.8-.251,0.022-.01a4.524,4.524,0,0,0,1.233-1s23.626-25.942,26-48.421A28.5,28.5,0,1,0,0,28.779a28.848,28.848,0,0,0,.243,3.578C2.682,54.828,26.65,80.73,26.65,80.73Z"/>
  <path id="Forma_1_copy_2" data-name="Forma 1 copy 2" class="cls-2" d="M43.894,41.3V24.582A1.558,1.558,0,0,0,42.359,23H35.07V18.452a1.191,1.191,0,0,0-.59-1.035l-5.919-3.4a1.106,1.106,0,0,0-.1-0.051V12.031h3.187a0.468,0.468,0,0,0,.46-0.474V9.162a0.467,0.467,0,0,0-.46-0.474H28.461V8.474a0.461,0.461,0,1,0-.921,0v5.5c-0.034.015-.068,0.032-0.1,0.051l-5.919,3.4a1.191,1.191,0,0,0-.591,1.035V23H13.641a1.558,1.558,0,0,0-1.535,1.58V41.3A1.939,1.939,0,0,0,11,43.064,1.909,1.909,0,0,0,12.88,45H43.12A1.909,1.909,0,0,0,45,43.064,1.939,1.939,0,0,0,43.894,41.3ZM37.961,28.509a0.908,0.908,0,0,1,.894-0.921h1.672a0.908,0.908,0,0,1,.894.921V30.23a0.908,0.908,0,0,1-.894.92H38.855a0.907,0.907,0,0,1-.894-0.92V28.509h0Zm0,5.53a0.907,0.907,0,0,1,.894-0.92h1.672a0.908,0.908,0,0,1,.894.92V35.76a0.908,0.908,0,0,1-.894.92H38.855a0.908,0.908,0,0,1-.894-0.92V34.039h0Zm-5.372-5.53a0.908,0.908,0,0,1,.894-0.921h1.672a0.908,0.908,0,0,1,.894.921V30.23a0.908,0.908,0,0,1-.894.92H33.483a0.907,0.907,0,0,1-.894-0.92V28.509Zm0,5.53a0.907,0.907,0,0,1,.894-0.92h1.672a0.908,0.908,0,0,1,.894.92V35.76a0.908,0.908,0,0,1-.894.92H33.483a0.908,0.908,0,0,1-.894-0.92V34.039ZM28,18.456a2.608,2.608,0,1,1-2.533,2.607A2.571,2.571,0,0,1,28,18.456ZM25.464,33.422a0.908,0.908,0,0,1,.895-0.92h3.284a0.908,0.908,0,0,1,.894.92v7.251a0.934,0.934,0,0,1-.118.456H25.582a0.936,0.936,0,0,1-.118-0.456V33.422h0Zm-5.513-4.913a0.908,0.908,0,0,1,.894-0.921h1.672a0.907,0.907,0,0,1,.894.921V30.23a0.907,0.907,0,0,1-.894.92H20.845a0.907,0.907,0,0,1-.894-0.92V28.509Zm0,5.53a0.907,0.907,0,0,1,.894-0.92h1.672a0.907,0.907,0,0,1,.894.92V35.76a0.907,0.907,0,0,1-.894.92H20.845a0.908,0.908,0,0,1-.894-0.92V34.039Zm-5.373-5.53a0.908,0.908,0,0,1,.894-0.921h1.672a0.908,0.908,0,0,1,.894.921V30.23a0.907,0.907,0,0,1-.894.92H15.473a0.907,0.907,0,0,1-.894-0.92V28.509Zm0,5.53a0.907,0.907,0,0,1,.894-0.92h1.672a0.907,0.907,0,0,1,.894.92V35.76a0.908,0.908,0,0,1-.894.92H15.473a0.908,0.908,0,0,1-.894-0.92V34.039Z"/>
</svg>
