<?xml version="1.0" encoding="utf-8"?>
<!-- Generator: Adobe Illustrator 22.1.0, SVG Export Plug-In . SVG Version: 6.00 Build 0)  -->
<svg version="1.1" id="Layer_1" xmlns="http://www.w3.org/2000/svg" xmlns:xlink="http://www.w3.org/1999/xlink" x="0px" y="0px"
	 viewBox="0 0 25.1 36.1" style="enable-background:new 0 0 25.1 36.1;" xml:space="preserve">
<style type="text/css">
	.st0{fill:#7CB342;}
	.st1{fill:#FFFFFF;}
</style>
<path id="Forma_1" class="st0" d="M11.8,35.6c0.2,0.2,0.3,0.3,0.5,0.4l0,0l0.4,0.1L13,36l0,0c0.2-0.1,0.4-0.3,0.5-0.4
	c0,0,10.4-11.4,11.5-21.4C25.9,7.3,21.1,1,14.2,0.1S1,4.1,0.1,10.9C0,11.5,0,12.1,0,12.6c0,0.5,0,1.1,0.1,1.6
	C1.2,24.1,11.8,35.6,11.8,35.6z"/>
<path id="Forma_1_copy" class="st1" d="M20,10.3c-0.1-0.5-0.1-1.3,0.4-1.6c0,0,0,0,0,0c0.4-0.1,0.6-0.3,0.4-0.5l-5.6-1.6l-9,1.2
	c0,0-1,0.1-0.9,1.7c0,0.5,0.2,1.1,0.6,1.5l-0.7,0.2c-0.2,0.2,0.1,0.4,0.4,0.5c0,0,0,0,0,0c0.5,0.3,0.5,1.1,0.4,1.6
	c-1.7,0.5-1.1,0.6-1.1,0.6l0.4,0.1c-0.4,0.4-0.5,0.9-0.5,1.5c0.1,1.6,0.9,1.7,0.9,1.7l5.9,1.9l8.9-2.1c0,0,0.6-0.1-1.1-0.6
	c-0.1-0.5-0.1-1.3,0.4-1.6c0,0,0,0,0,0c0.4-0.1,0.6-0.3,0.4-0.5L20,14c0.3-0.2,0.6-0.5,0.7-1.6c0.1-0.5-0.1-1-0.4-1.4l0.8-0.2
	C21.1,10.9,21.7,10.8,20,10.3z M12.6,10.3l1.5-0.3l5.1-1l0.8-0.1c-0.2,0.4-0.3,0.9-0.2,1.4c0,0.1,0,0.2,0,0.2l-0.8,0.2l-6.4,1.5
	L12.6,10.3z M6.1,11.8l0.8,0.2l4.9,1l0.4,0.1l0,0l1.3,0.3l0.1,1.9L7,13.5l-0.6-0.2c0-0.1,0-0.1,0-0.2C6.4,12.7,6.3,12.2,6.1,11.8z
	 M5.9,9.4c0-0.3,0-0.6,0.2-0.9c0.1-0.1,0.2-0.1,0.3-0.1c0,0,0,0,0.1,0l3.9,1.2l1.9,0.6l-0.1,1.9l-5.4-1.5l-0.3-0.1c0,0,0,0,0,0
	C6.4,10.6,5.9,10.6,5.9,9.4z M11.7,18.1L6,16.5c0,0,0,0,0,0c0,0-0.6,0-0.6-1.2c0-0.3,0-0.6,0.2-0.9c0.1-0.1,0.2-0.1,0.3-0.1
	c0,0,0,0,0.1,0l0,0l5.8,1.8L11.7,18.1z M19.2,16.1c0,0.1,0,0.2,0,0.2L12,18.1l0.1-1.9l1.5-0.3l0.2,0.1l0.9-0.3l3.9-0.8l0.8-0.1
	C19.2,15.2,19.1,15.7,19.2,16.1z M19.6,13.6C19.6,13.6,19.5,13.6,19.6,13.6L19,13.7l-5.2,1.4l-0.1-1.9l1.7-0.5l4.1-1.3
	c0.1,0,0.3,0,0.4,0.1c0.2,0.2,0.3,0.6,0.2,0.9C20.1,13.5,19.6,13.6,19.6,13.6L19.6,13.6z"/>
</svg>
