<?xml version="1.0" encoding="utf-8"?>
<!-- Generator: Adobe Illustrator 22.1.0, SVG Export Plug-In . SVG Version: 6.00 Build 0)  -->
<svg version="1.1" id="Layer_1" xmlns="http://www.w3.org/2000/svg" xmlns:xlink="http://www.w3.org/1999/xlink" x="0px" y="0px"
	 viewBox="0 0 39 54" style="enable-background:new 0 0 39 54;" xml:space="preserve">
<style type="text/css">
	.st0{fill:#D81B60;}
	.st1{fill:#FFFFFF;}
</style>
<path id="Forma_1" class="st0" d="M9.6,53.5c0.1,0.1,0.3,0.3,0.4,0.4l0,0l0.3,0.1l0.3-0.1l0,0c0.2-0.1,0.3-0.2,0.4-0.4
	c0,0,8.5-9.3,9.4-17.4c0.7-5.6-3.2-10.8-8.8-11.5C6,23.9,0.8,27.9,0.1,33.5C0,33.9,0,34.4,0,34.9c0,0.4,0,0.9,0.1,1.3
	C1,44.2,9.6,53.5,9.6,53.5z"/>
<path class="st1" d="M15.6,39.7h-0.3V39c0-0.1-0.1-0.2-0.2-0.2H15v-0.3c0-0.2-0.1-0.4-0.4-0.5v-0.7c0-0.1-0.1-0.2-0.2-0.2
	c-0.1,0-0.2,0.1-0.2,0.2v0.7h-0.4v-3.1h0.4v0.7c0,0.1,0.1,0.2,0.2,0.2c0.1,0,0.2-0.1,0.2-0.2v-0.8c0.2-0.1,0.4-0.3,0.4-0.5v-0.3h0.1
	c0.1,0,0.2-0.1,0.2-0.2v-0.8h0c0.1,0,0.2-0.1,0.2-0.2c0-0.1,0-0.2-0.1-0.2l-5.2-2.6c-0.1,0-0.1,0-0.2,0L5,32.4
	c-0.1,0-0.1,0.1-0.1,0.2c0,0.1,0.1,0.2,0.2,0.2h0v0.8c0,0.1,0.1,0.2,0.2,0.2h0.1v0.3c0,0.2,0.1,0.4,0.4,0.5v3.2
	c-0.2,0.1-0.4,0.3-0.4,0.5v0.3H5.3c-0.1,0-0.2,0.1-0.2,0.2v0.7H4.9c-0.1,0-0.2,0.1-0.2,0.2v0.9c0,0.1,0.1,0.2,0.2,0.2h10.8
	c0.1,0,0.2-0.1,0.2-0.2v-0.9C15.9,39.8,15.8,39.7,15.6,39.7z M14.5,38.3c0.1,0,0.1,0.1,0.1,0.1v0.3h-1.1v-0.3c0-0.1,0.1-0.1,0.1-0.1
	H14.5z M12.5,38.8v-0.3c0-0.2-0.1-0.4-0.4-0.5v-3.2c0.2-0.1,0.4-0.3,0.4-0.5v-0.3H13v0.3c0,0.2,0.1,0.4,0.4,0.5v3.2
	C13.2,38,13,38.2,13,38.5v0.3H12.5z M10,38.8v-0.3c0-0.2-0.1-0.4-0.4-0.5v-3.2c0.2-0.1,0.4-0.3,0.4-0.5v-0.3h0.5v0.3
	c0,0.2,0.1,0.4,0.4,0.5v3.2c-0.2,0.1-0.4,0.3-0.4,0.5v0.3H10z M7.5,38.8v-0.3c0-0.2-0.1-0.4-0.4-0.5v-3.2c0.2-0.1,0.4-0.3,0.4-0.5
	v-0.3H8v0.3c0,0.2,0.1,0.4,0.4,0.5v3.2C8.1,38,8,38.2,8,38.5v0.3H7.5z M6.3,34.8h0.4v3.1H6.3V34.8z M8.8,34.8h0.4v3.1H8.8V34.8z
	 M9.6,34.2c0,0.1-0.1,0.1-0.1,0.1H8.6c-0.1,0-0.1-0.1-0.1-0.1v-0.3h1.1L9.6,34.2L9.6,34.2z M8.4,38.5c0-0.1,0.1-0.1,0.1-0.1h0.9
	c0.1,0,0.1,0.1,0.1,0.1v0.3H8.4V38.5z M11.3,34.8h0.4v3.1h-0.4V34.8z M12.1,34.2c0,0.1-0.1,0.1-0.1,0.1h-0.9c-0.1,0-0.1-0.1-0.1-0.1
	v-0.3h1.1V34.2z M10.9,38.5c0-0.1,0.1-0.1,0.1-0.1h0.9c0.1,0,0.1,0.1,0.1,0.1v0.3h-1.1L10.9,38.5L10.9,38.5z M14.6,34.2
	c0,0.1-0.1,0.1-0.1,0.1h-0.9c-0.1,0-0.1-0.1-0.1-0.1v-0.3h1.1V34.2z M9.2,32.8c0.1,0,0.2-0.1,0.2-0.2s-0.1-0.2-0.2-0.2H6l4.2-2.1
	l4.2,2.1h-3.1c-0.1,0-0.2,0.1-0.2,0.2s0.1,0.2,0.2,0.2h3.5v0.6H5.6v-0.6H9.2z M7,33.9v0.3c0,0.1-0.1,0.1-0.1,0.1H6
	c-0.1,0-0.1-0.1-0.1-0.1v-0.3H7z M5.9,38.5c0-0.1,0.1-0.1,0.1-0.1h0.9C7,38.3,7,38.4,7,38.5v0.3H5.9V38.5z M5.6,39.3h9.4v0.4H5.6
	V39.3z M15.4,40.6H5.1v-0.4h10.4V40.6z"/>
</svg>
