<?xml version="1.0" encoding="utf-8"?>
<!-- Generator: Adobe Illustrator 22.1.0, SVG Export Plug-In . SVG Version: 6.00 Build 0)  -->
<svg version="1.1" id="Layer_1" xmlns="http://www.w3.org/2000/svg" xmlns:xlink="http://www.w3.org/1999/xlink" x="0px" y="0px"
	 viewBox="0 0 22.2 32.8" style="enable-background:new 0 0 22.2 32.8;" xml:space="preserve">
<style type="text/css">
	.st0{fill:#FB8C00;}
	.st1{fill:#FFFFFF;}
</style>
<path id="Forma_1" class="st0" d="M10.4,32.3c0.1,0.2,0.3,0.3,0.5,0.4l0,0l0.3,0.1l0.3-0.1l0,0c0.2-0.1,0.3-0.2,0.5-0.4
	c0,0,9.2-10.1,10.1-18.8c0.8-6.1-3.5-11.6-9.6-12.4S0.9,4.5,0.1,10.6C0,11.1,0,11.6,0,12.1c0,0.5,0,0.9,0.1,1.4
	C1,22.3,10.4,32.3,10.4,32.3z"/>
<g>
	<g>
		<path class="st1" d="M16.6,9.3h-2.1V7.7c0-0.1-0.1-0.2-0.2-0.2H7.9c-0.1,0-0.2,0.1-0.2,0.2v2.7H5.6c-0.1,0-0.2,0.1-0.2,0.2v7.8
			c0,0.1,0.1,0.2,0.2,0.2c0.1,0,0.2-0.1,0.2-0.2v-7.6h1.9v7.8c0,0.1,0.1,0.2,0.2,0.2h6.4c0.1,0,0.2-0.1,0.2-0.2V9.6h1.9v8.7
			c0,0.1,0.1,0.2,0.2,0.2s0.2-0.1,0.2-0.2V9.4C16.8,9.3,16.7,9.3,16.6,9.3z M10.9,18.4h-0.8v-1.7h0.8V18.4z M12,18.4h-0.8v-1.7H12
			V18.4z M14.1,18.4h-1.7v-1.9c0-0.1-0.1-0.2-0.2-0.2H10c-0.1,0-0.2,0.1-0.2,0.2v1.9H8.1V7.9h6.1V18.4z"/>
	</g>
</g>
<g>
	<g>
		<path class="st1" d="M9.8,8.3H8.6c-0.1,0-0.2,0.1-0.2,0.2v1.1c0,0.1,0.1,0.2,0.2,0.2h1.1c0.1,0,0.2-0.1,0.2-0.2V8.5
			C10,8.4,9.9,8.3,9.8,8.3z M9.6,9.4H8.8V8.7h0.8V9.4z"/>
	</g>
</g>
<g>
	<g>
		<path class="st1" d="M11.7,8.3h-1.1c-0.1,0-0.2,0.1-0.2,0.2v1.1c0,0.1,0.1,0.2,0.2,0.2h1.1c0.1,0,0.2-0.1,0.2-0.2V8.5
			C11.9,8.4,11.8,8.3,11.7,8.3z M11.5,9.4h-0.8V8.7h0.8V9.4z"/>
	</g>
</g>
<g>
	<g>
		<path class="st1" d="M13.6,8.3h-1.1c-0.1,0-0.2,0.1-0.2,0.2v1.1c0,0.1,0.1,0.2,0.2,0.2h1.1c0.1,0,0.2-0.1,0.2-0.2V8.5
			C13.7,8.4,13.7,8.3,13.6,8.3z M13.4,9.4h-0.8V8.7h0.8V9.4z"/>
	</g>
</g>
<g>
	<g>
		<path class="st1" d="M9.8,10.2H8.6c-0.1,0-0.2,0.1-0.2,0.2v1.1c0,0.1,0.1,0.2,0.2,0.2h1.1c0.1,0,0.2-0.1,0.2-0.2v-1.1
			C10,10.3,9.9,10.2,9.8,10.2z M9.6,11.3H8.8v-0.8h0.8V11.3z"/>
	</g>
</g>
<g>
	<g>
		<path class="st1" d="M13.6,10.2h-1.1c-0.1,0-0.2,0.1-0.2,0.2v1.1c0,0.1,0.1,0.2,0.2,0.2h1.1c0.1,0,0.2-0.1,0.2-0.2v-1.1
			C13.7,10.3,13.7,10.2,13.6,10.2z M13.4,11.3h-0.8v-0.8h0.8V11.3z"/>
	</g>
</g>
<g>
	<g>
		<path class="st1" d="M9.8,12.1H8.6c-0.1,0-0.2,0.1-0.2,0.2v1.1c0,0.1,0.1,0.2,0.2,0.2h1.1c0.1,0,0.2-0.1,0.2-0.2v-1.1
			C10,12.2,9.9,12.1,9.8,12.1z M9.6,13.2H8.8v-0.8h0.8V13.2z"/>
	</g>
</g>
<g>
	<g>
		<path class="st1" d="M11.7,12.1h-1.1c-0.1,0-0.2,0.1-0.2,0.2v1.1c0,0.1,0.1,0.2,0.2,0.2h1.1c0.1,0,0.2-0.1,0.2-0.2v-1.1
			C11.9,12.2,11.8,12.1,11.7,12.1z M11.5,13.2h-0.8v-0.8h0.8V13.2z"/>
	</g>
</g>
<g>
	<g>
		<path class="st1" d="M13.6,12.1h-1.1c-0.1,0-0.2,0.1-0.2,0.2v1.1c0,0.1,0.1,0.2,0.2,0.2h1.1c0.1,0,0.2-0.1,0.2-0.2v-1.1
			C13.7,12.2,13.7,12.1,13.6,12.1z M13.4,13.2h-0.8v-0.8h0.8V13.2z"/>
	</g>
</g>
<g>
	<g>
		<path class="st1" d="M9.8,14H8.6c-0.1,0-0.2,0.1-0.2,0.2v1.1c0,0.1,0.1,0.2,0.2,0.2h1.1c0.1,0,0.2-0.1,0.2-0.2v-1.1
			C10,14.1,9.9,14,9.8,14z M9.6,15.1H8.8v-0.8h0.8V15.1z"/>
	</g>
</g>
<g>
	<g>
		<path class="st1" d="M11.7,14h-1.1c-0.1,0-0.2,0.1-0.2,0.2v1.1c0,0.1,0.1,0.2,0.2,0.2h1.1c0.1,0,0.2-0.1,0.2-0.2v-1.1
			C11.9,14.1,11.8,14,11.7,14z M11.5,15.1h-0.8v-0.8h0.8V15.1z"/>
	</g>
</g>
<g>
	<g>
		<path class="st1" d="M13.6,14h-1.1c-0.1,0-0.2,0.1-0.2,0.2v1.1c0,0.1,0.1,0.2,0.2,0.2h1.1c0.1,0,0.2-0.1,0.2-0.2v-1.1
			C13.7,14.1,13.7,14,13.6,14z M13.4,15.1h-0.8v-0.8h0.8V15.1z"/>
	</g>
</g>
<g>
	<g>
		<path class="st1" d="M6.5,11.2H6.4c-0.1,0-0.2,0.1-0.2,0.2v0.2c0,0.1,0.1,0.2,0.2,0.2h0.2c0.1,0,0.2-0.1,0.2-0.2v-0.2
			C6.7,11.2,6.6,11.2,6.5,11.2z"/>
	</g>
</g>
<g>
	<g>
		<path class="st1" d="M7.3,11.2H7.1c-0.1,0-0.2,0.1-0.2,0.2v0.2c0,0.1,0.1,0.2,0.2,0.2h0.2c0.1,0,0.2-0.1,0.2-0.2v-0.2
			C7.5,11.2,7.4,11.2,7.3,11.2z"/>
	</g>
</g>
<g>
	<g>
		<path class="st1" d="M6.5,11.9H6.4c-0.1,0-0.2,0.1-0.2,0.2v0.2c0,0.1,0.1,0.2,0.2,0.2h0.2c0.1,0,0.2-0.1,0.2-0.2v-0.2
			C6.7,12,6.6,11.9,6.5,11.9z"/>
	</g>
</g>
<g>
	<g>
		<path class="st1" d="M7.3,11.9H7.1c-0.1,0-0.2,0.1-0.2,0.2v0.2c0,0.1,0.1,0.2,0.2,0.2h0.2c0.1,0,0.2-0.1,0.2-0.2v-0.2
			C7.5,12,7.4,11.9,7.3,11.9z"/>
	</g>
</g>
<g>
	<g>
		<path class="st1" d="M6.5,12.7H6.4c-0.1,0-0.2,0.1-0.2,0.2V13c0,0.1,0.1,0.2,0.2,0.2h0.2c0.1,0,0.2-0.1,0.2-0.2v-0.2
			C6.7,12.8,6.6,12.7,6.5,12.7z"/>
	</g>
</g>
<g>
	<g>
		<path class="st1" d="M7.3,12.7H7.1c-0.1,0-0.2,0.1-0.2,0.2V13c0,0.1,0.1,0.2,0.2,0.2h0.2c0.1,0,0.2-0.1,0.2-0.2v-0.2
			C7.5,12.8,7.4,12.7,7.3,12.7z"/>
	</g>
</g>
<g>
	<g>
		<path class="st1" d="M6.5,13.4H6.4c-0.1,0-0.2,0.1-0.2,0.2v0.2c0,0.1,0.1,0.2,0.2,0.2h0.2c0.1,0,0.2-0.1,0.2-0.2v-0.2
			C6.7,13.5,6.6,13.4,6.5,13.4z"/>
	</g>
</g>
<g>
	<g>
		<path class="st1" d="M7.3,13.4H7.1c-0.1,0-0.2,0.1-0.2,0.2v0.2C6.9,13.9,7,14,7.1,14h0.2c0.1,0,0.2-0.1,0.2-0.2v-0.2
			C7.5,13.5,7.4,13.4,7.3,13.4z"/>
	</g>
</g>
<g>
	<g>
		<path class="st1" d="M6.5,14.2H6.4c-0.1,0-0.2,0.1-0.2,0.2v0.2c0,0.1,0.1,0.2,0.2,0.2h0.2c0.1,0,0.2-0.1,0.2-0.2v-0.2
			C6.7,14.3,6.6,14.2,6.5,14.2z"/>
	</g>
</g>
<g>
	<g>
		<path class="st1" d="M7.3,14.2H7.1c-0.1,0-0.2,0.1-0.2,0.2v0.2c0,0.1,0.1,0.2,0.2,0.2h0.2c0.1,0,0.2-0.1,0.2-0.2v-0.2
			C7.5,14.3,7.4,14.2,7.3,14.2z"/>
	</g>
</g>
<g>
	<g>
		<path class="st1" d="M6.5,14.9H6.4c-0.1,0-0.2,0.1-0.2,0.2v0.2c0,0.1,0.1,0.2,0.2,0.2h0.2c0.1,0,0.2-0.1,0.2-0.2v-0.2
			C6.7,15,6.6,14.9,6.5,14.9z"/>
	</g>
</g>
<g>
	<g>
		<path class="st1" d="M7.3,14.9H7.1c-0.1,0-0.2,0.1-0.2,0.2v0.2c0,0.1,0.1,0.2,0.2,0.2h0.2c0.1,0,0.2-0.1,0.2-0.2v-0.2
			C7.5,15,7.4,14.9,7.3,14.9z"/>
	</g>
</g>
<g>
	<g>
		<path class="st1" d="M6.5,15.7H6.4c-0.1,0-0.2,0.1-0.2,0.2v0.2c0,0.1,0.1,0.2,0.2,0.2h0.2c0.1,0,0.2-0.1,0.2-0.2v-0.2
			C6.7,15.8,6.6,15.7,6.5,15.7z"/>
	</g>
</g>
<g>
	<g>
		<path class="st1" d="M7.3,15.7H7.1c-0.1,0-0.2,0.1-0.2,0.2v0.2c0,0.1,0.1,0.2,0.2,0.2h0.2c0.1,0,0.2-0.1,0.2-0.2v-0.2
			C7.5,15.8,7.4,15.7,7.3,15.7z"/>
	</g>
</g>
<g>
	<g>
		<path class="st1" d="M6.5,16.5H6.4c-0.1,0-0.2,0.1-0.2,0.2v0.2c0,0.1,0.1,0.2,0.2,0.2h0.2c0.1,0,0.2-0.1,0.2-0.2v-0.2
			C6.7,16.5,6.6,16.5,6.5,16.5z"/>
	</g>
</g>
<g>
	<g>
		<path class="st1" d="M7.3,16.5H7.1c-0.1,0-0.2,0.1-0.2,0.2v0.2C6.9,16.9,7,17,7.1,17h0.2c0.1,0,0.2-0.1,0.2-0.2v-0.2
			C7.5,16.5,7.4,16.5,7.3,16.5z"/>
	</g>
</g>
<g>
	<g>
		<path class="st1" d="M6.5,17.2H6.4c-0.1,0-0.2,0.1-0.2,0.2v0.2c0,0.1,0.1,0.2,0.2,0.2h0.2c0.1,0,0.2-0.1,0.2-0.2v-0.2
			C6.7,17.3,6.6,17.2,6.5,17.2z"/>
	</g>
</g>
<g>
	<g>
		<path class="st1" d="M7.3,17.2H7.1c-0.1,0-0.2,0.1-0.2,0.2v0.2c0,0.1,0.1,0.2,0.2,0.2h0.2c0.1,0,0.2-0.1,0.2-0.2v-0.2
			C7.5,17.3,7.4,17.2,7.3,17.2z"/>
	</g>
</g>
<g>
	<g>
		<path class="st1" d="M15.8,10h-0.8c-0.1,0-0.2,0.1-0.2,0.2V11c0,0.1,0.1,0.2,0.2,0.2h0.8c0.1,0,0.2-0.1,0.2-0.2v-0.8
			C16,10.1,15.9,10,15.8,10z M15.6,10.8h-0.4v-0.4h0.4V10.8z"/>
	</g>
</g>
<g>
	<g>
		<path class="st1" d="M15.8,11.5h-0.8c-0.1,0-0.2,0.1-0.2,0.2v0.8c0,0.1,0.1,0.2,0.2,0.2h0.8c0.1,0,0.2-0.1,0.2-0.2v-0.8
			C16,11.6,15.9,11.5,15.8,11.5z M15.6,12.3h-0.4v-0.4h0.4V12.3z"/>
	</g>
</g>
<g>
	<g>
		<path class="st1" d="M15.8,13h-0.8c-0.1,0-0.2,0.1-0.2,0.2V14c0,0.1,0.1,0.2,0.2,0.2h0.8c0.1,0,0.2-0.1,0.2-0.2v-0.8
			C16,13.1,15.9,13,15.8,13z M15.6,13.8h-0.4v-0.4h0.4V13.8z"/>
	</g>
</g>
<g>
	<g>
		<path class="st1" d="M15.8,14.6h-0.8c-0.1,0-0.2,0.1-0.2,0.2v0.8c0,0.1,0.1,0.2,0.2,0.2h0.8c0.1,0,0.2-0.1,0.2-0.2v-0.8
			C16,14.6,15.9,14.6,15.8,14.6z M15.6,15.3h-0.4v-0.4h0.4V15.3z"/>
	</g>
</g>
<g>
	<g>
		<path class="st1" d="M15.8,16.1h-0.8c-0.1,0-0.2,0.1-0.2,0.2V17c0,0.1,0.1,0.2,0.2,0.2h0.8c0.1,0,0.2-0.1,0.2-0.2v-0.8
			C16,16.2,15.9,16.1,15.8,16.1z M15.6,16.8h-0.4v-0.4h0.4V16.8z"/>
	</g>
</g>
</svg>
